<svg xmlns="http://www.w3.org/2000/svg" width="88.758" height="20.779" viewBox="0 0 88.758 20.779">
  <g id="Logo_with_headline" data-name="Logo with headline" transform="translate(-188.242 -58.695)">
    <path id="forum-logo-dark" d="M53.864,8.2a7.455,7.455,0,0,0-7.317,7.585,7.321,7.321,0,1,0,14.633,0A7.454,7.454,0,0,0,53.864,8.2Zm.123,14.475c-2.014,0-2.684-2.934-2.684-6.829s.671-6.829,2.684-6.829,2.684,2.934,2.684,6.829S56,22.673,53.987,22.673ZM38.365,3.974v8.5h1.529c2.678,0,3.134-.98,3.277-3.174h.855v7.644h-.855c-.142-2.165-.627-3.231-3.277-3.231H38.365V20.1c0,1.367.655,2.194,1.823,2.251l1.425.058v.748H31.242v-.748l.826-.058A1.714,1.714,0,0,0,33.892,20.5V5.657A1.714,1.714,0,0,0,32.067,3.8l-.826-.058V2.7H47.188V8.408h-.864c-.769-3.02-1.8-4.436-5.849-4.436H38.365ZM92.444,21.739h.228v.768l-5.974.967V20.7a5.629,5.629,0,0,1-4.808,2.771c-2.561,0-4.267-1.849-4.267-4.779V11.867c0-1.308-.6-1.849-1.65-1.849h-.256V9.25l6.174-.967V18.24c0,1.821.8,2.959,2.333,2.959a3.789,3.789,0,0,0,2.3-.984V11.868c0-1.308-.6-1.849-1.65-1.849h-.256V9.251l6.174-.967V19.892C90.795,21.2,91.391,21.739,92.444,21.739ZM120,22.45v.711h-7.824V22.45l.342-.028c1.024-.086,1.252-.654,1.252-1.906v-7.34c0-2.077-1.052-2.788-2.219-2.788a3.6,3.6,0,0,0-2.532,1.146v8.982c0,1.252.228,1.821,1.252,1.906l.342.028v.711h-7.454v-.711l.342-.028c1.024-.086,1.252-.654,1.252-1.906v-7.34c0-2.077-1.052-2.788-2.219-2.788a3.75,3.75,0,0,0-2.561,1.182v8.945c0,1.252.228,1.821,1.252,1.906l.342.028v.711h-7.8v-.711l.312-.028c.825-.086,1.65-.312,1.65-1.906V11.864c0-1.337-.626-1.878-1.678-1.878h-.228v-.74L99.8,8.28v2.715a6.273,6.273,0,0,1,5.178-2.715c2.048,0,3.443.979,3.841,2.771a5.981,5.981,0,0,1,5.206-2.771c2.561,0,4.011,1.565,4.011,4.751v7.482c0,1.479.682,1.821,1.65,1.906ZM67.967,13.48V20.5c0,1.54.827,1.882,1.655,1.911l.628.028v.713h-8.5v-.713l.314-.028c.827-.086,1.655-.371,1.655-1.911v-8.67c0-1.34-.628-1.882-1.683-1.882h-.228V9.208l6.162-.97v2.449a5.2,5.2,0,0,1,4.357-2.36h0a2.319,2.319,0,1,1-2.143,1.411A4.359,4.359,0,0,0,67.967,13.48Z" transform="translate(157 56)" fill="#132f48"/>
  </g>
</svg>
